<?xml version="1.0" standalone="no"?>
<!DOCTYPE svg PUBLIC "-//W3C//DTD SVG 20010904//EN"
 "http://www.w3.org/TR/2001/REC-SVG-20010904/DTD/svg10.dtd">
<svg version="1.0" xmlns="http://www.w3.org/2000/svg"
 width="456.000000pt" height="456.000000pt" viewBox="0 0 456.000000 456.000000"
 preserveAspectRatio="xMidYMid meet">

<g transform="translate(0.000000,456.000000) scale(0.100000,-0.100000)"
fill="#000000" stroke="none">
<path d="M2202 4162 c-7 -5 16 -9 63 -10 41 -1 83 -7 94 -14 20 -12 20 -13 -2
-25 -21 -12 -21 -12 11 -13 24 0 31 -3 25 -12 -4 -7 -8 -17 -8 -23 0 -5 -23
-11 -51 -12 -28 -1 -66 -9 -85 -17 -31 -13 -20 -14 151 -15 244 0 379 -20 575
-85 106 -36 253 -104 295 -136 19 -15 22 -22 12 -28 -7 -5 -14 -31 -16 -58 -5
-70 -16 -102 -33 -106 -10 -2 22 -32 78 -75 180 -137 346 -331 447 -525 54
-102 45 -99 172 -44 87 38 86 33 29 151 -107 222 -244 402 -438 578 -65 60
-249 197 -264 197 -3 0 -36 19 -73 42 -143 86 -386 172 -584 207 -128 22 -378
37 -398 23z"/>
<path d="M2088 4153 c12 -2 32 -2 45 0 12 2 2 4 -23 4 -25 0 -35 -2 -22 -4z"/>
<path d="M1998 4143 c6 -2 18 -2 25 0 6 3 1 5 -13 5 -14 0 -19 -2 -12 -5z"/>
<path d="M1923 3940 c-39 -10 -107 -33 -150 -50 -115 -46 -327 -171 -268 -158
24 5 78 -19 70 -32 -3 -5 4 -15 16 -24 19 -13 20 -18 9 -31 -13 -15 33 3 149
60 30 15 95 40 144 56 93 30 133 48 108 49 -10 0 -11 3 -2 13 6 8 8 17 5 20
-3 3 -3 11 2 18 12 20 12 67 0 83 -10 13 -20 12 -83 -4z"/>
<path d="M2070 3366 c0 -12 16 -84 36 -161 19 -77 68 -270 108 -429 l73 -289
84 -81 c46 -45 109 -104 139 -131 30 -28 91 -90 134 -139 l79 -88 -62 -62
c-63 -64 -71 -76 -47 -76 27 0 27 -19 -1 -44 -27 -25 -28 -25 -35 -6 -10 28
-19 25 -70 -19 l-45 -40 40 -153 c22 -84 53 -198 69 -252 l30 -99 539 539
c438 437 541 536 550 524 14 -20 4 -196 -17 -320 -37 -215 -118 -406 -267
-629 -43 -63 -77 -115 -77 -116 0 -2 10 -5 23 -9 13 -3 29 -17 35 -31 6 -14
18 -25 27 -25 24 0 19 -12 -33 -76 -60 -75 -71 -98 -39 -89 15 5 2 -14 -43
-60 -126 -128 -280 -231 -452 -300 -129 -51 -154 -38 -40 22 165 87 354 215
444 301 36 34 36 35 17 55 -10 11 -18 26 -17 33 4 18 -43 56 -56 45 -274 -212
-423 -291 -691 -362 -119 -32 -123 -32 -360 -33 -251 -1 -312 6 -483 55 -36
10 -67 17 -70 15 -2 -2 6 -7 17 -11 34 -10 22 -106 -15 -128 -22 -13 -16 -27
12 -27 20 0 25 4 20 16 -4 11 1 22 14 31 11 8 20 21 20 29 0 29 17 13 30 -28
17 -56 18 -64 1 -60 -9 2 -11 -3 -7 -13 4 -12 1 -15 -12 -11 -9 3 -46 13 -82
22 -76 19 -211 71 -225 86 -7 8 -4 9 10 3 55 -20 55 -20 57 31 0 27 1 55 0 63
0 16 17 36 36 42 7 2 -34 32 -91 66 -138 82 -213 139 -325 248 -117 112 -216
245 -293 390 -17 33 -33 62 -35 64 -4 5 -193 -68 -207 -79 -9 -8 94 -219 148
-305 169 -267 428 -505 717 -658 167 -89 359 -155 553 -190 144 -26 464 -31
605 -9 339 53 661 196 925 412 97 79 258 250 328 347 193 270 306 559 347 896
14 112 8 427 -9 522 -30 158 -27 152 -84 165 -29 7 -135 32 -237 57 l-185 45
-80 -33 c-62 -25 -94 -46 -143 -93 -35 -34 -72 -72 -82 -86 -18 -25 -18 -26 2
-27 32 -3 33 -11 8 -38 -28 -29 -38 -31 -55 -8 -11 15 -23 6 -109 -77 l-96
-93 -347 341 c-192 187 -417 410 -500 494 -113 114 -153 149 -153 134z"/>
<path d="M1864 3197 l-49 -52 50 45 c27 25 52 46 54 48 2 1 2 4 0 7 -3 2 -27
-19 -55 -48z"/>
<path d="M1931 3200 c0 -8 4 -22 9 -30 12 -18 12 -2 0 25 -6 13 -9 15 -9 5z"/>
<path d="M1971 3020 c0 -8 4 -22 9 -30 12 -18 12 -2 0 25 -6 13 -9 15 -9 5z"/>
<path d="M2011 2894 c0 -11 3 -14 6 -6 3 7 2 16 -1 19 -3 4 -6 -2 -5 -13z"/>
<path d="M2024 2846 c4 -15 10 -41 13 -57 3 -16 9 -27 13 -24 10 6 -9 86 -23
100 -6 7 -7 0 -3 -19z"/>
<path d="M732 2708 c-12 -26 -29 -81 -39 -123 -9 -41 -20 -70 -24 -64 -4 6
-12 -28 -19 -77 -13 -92 -10 -390 4 -413 6 -9 32 11 92 70 l84 84 0 120 c0
104 14 226 36 329 5 24 4 28 -10 23 -19 -8 -83 45 -96 78 -7 17 -11 13 -28
-27z"/>
<path d="M1865 2690 c-3 -5 -2 -10 4 -10 5 0 13 5 16 10 3 6 2 10 -4 10 -5 0
-13 -4 -16 -10z"/>
<path d="M1760 2525 c0 -7 79 -78 99 -89 16 -9 -26 43 -62 77 -18 16 -37 23
-37 12z"/>
<path d="M1948 2315 c6 -12 47 -58 92 -103 51 -51 79 -86 74 -93 -5 -8 -2 -10
8 -6 19 7 38 -11 32 -28 -3 -7 -1 -16 5 -19 6 -4 8 -21 5 -39 -4 -24 -3 -28 5
-17 5 8 13 11 17 7 4 -3 1 -13 -6 -22 -8 -10 -11 -30 -7 -60 4 -25 2 -47 -3
-50 -6 -3 -10 -25 -10 -47 0 -25 -6 -45 -15 -52 -14 -10 -21 -73 -25 -225 0
-12 -3 -12 -12 -3 -10 10 -10 15 2 22 8 5 11 12 7 17 -5 4 -12 1 -17 -7 -7
-11 -15 -7 -44 18 -21 19 -30 33 -23 36 7 2 5 5 -4 5 -9 1 -70 51 -135 113
-66 61 34 -43 221 -233 187 -189 340 -345 341 -347 1 -1 -5 32 -12 75 -8 43
-18 89 -23 103 -5 14 -12 39 -16 55 -6 31 -30 113 -70 245 -29 95 -70 256 -86
340 -12 65 -33 104 -53 96 -6 -2 -67 51 -135 118 -68 66 -119 112 -113 101z
m197 -775 c3 -5 1 -10 -4 -10 -6 0 -11 5 -11 10 0 6 2 10 4 10 3 0 8 -4 11
-10z"/>
<path d="M1397 2187 c-7 -17 26 -38 43 -27 11 7 10 11 -3 24 -19 19 -33 20
-40 3z"/>
<path d="M985 1785 c-33 -30 -55 -55 -48 -55 23 0 138 58 155 79 12 14 14 21
5 21 -6 0 -21 2 -32 5 -14 4 -37 -11 -80 -50z"/>
<path d="M3220 1179 c0 -5 5 -7 10 -4 6 3 10 8 10 11 0 2 -4 4 -10 4 -5 0 -10
-5 -10 -11z"/>
<path d="M1520 770 c-13 -9 -13 -11 0 -19 17 -12 30 -5 30 15 0 16 -9 18 -30
4z"/>
</g>
</svg>
