<?xml version="1.0" standalone="no"?>
<!DOCTYPE svg PUBLIC "-//W3C//DTD SVG 20010904//EN"
 "http://www.w3.org/TR/2001/REC-SVG-20010904/DTD/svg10.dtd">
<svg version="1.0" xmlns="http://www.w3.org/2000/svg"
 width="456.000000pt" height="456.000000pt" viewBox="0 0 456.000000 456.000000"
 preserveAspectRatio="xMidYMid meet">

<g transform="translate(0.000000,456.000000) scale(0.100000,-0.100000)"
fill="#000000" stroke="none">
<path d="M2088 4153 c12 -2 30 -2 40 0 9 3 -1 5 -23 4 -22 0 -30 -2 -17 -4z"/>
<path d="M2309 4153 c25 -3 54 -11 65 -19 23 -16 50 -19 41 -4 -3 6 3 10 14
10 23 0 19 -25 -5 -34 -9 -3 -12 -10 -9 -16 3 -5 -1 -10 -10 -10 -9 0 -14 -4
-11 -9 8 -12 -18 -21 -62 -22 -20 0 -53 -7 -72 -15 -33 -13 -30 -14 63 -10
305 11 601 -47 839 -164 111 -55 145 -80 127 -94 -8 -6 -16 -29 -17 -51 -5
-69 -13 -96 -34 -104 -17 -6 -5 -18 74 -78 179 -137 345 -332 446 -525 54
-102 45 -99 172 -44 88 38 87 32 24 161 -131 270 -346 522 -598 700 -31 22
-69 47 -84 55 -15 9 -54 31 -87 51 -234 137 -568 231 -810 227 -60 -1 -90 -3
-66 -5z"/>
<path d="M1998 4143 c6 -2 18 -2 25 0 6 3 1 5 -13 5 -14 0 -19 -2 -12 -5z"/>
<path d="M1860 3921 c-94 -30 -241 -101 -322 -155 -55 -37 -58 -43 -14 -26 14
5 25 6 23 2 -2 -7 39 -52 48 -52 3 0 12 -5 19 -12 10 -10 9 -16 -8 -31 -12
-10 -16 -16 -11 -14 6 3 55 26 110 52 55 26 140 60 188 76 93 30 132 48 108
49 -8 0 -11 6 -6 18 4 9 9 41 11 70 l5 52 -33 -1 c-18 0 -71 -13 -118 -28z"/>
<path d="M2070 3371 c1 -22 25 -122 128 -531 l90 -355 103 -98 c57 -54 115
-105 130 -114 14 -9 33 -27 42 -42 16 -26 42 -56 121 -139 l40 -42 -54 -55
c-45 -46 -52 -57 -40 -65 8 -5 21 -8 28 -5 21 8 -26 -52 -59 -76 -25 -18 -33
-19 -39 -8 -5 7 -6 17 -4 21 12 19 -16 5 -52 -26 l-39 -33 18 -69 c48 -194 86
-336 102 -383 l17 -53 539 538 c438 437 541 536 550 524 6 -9 8 -54 5 -120
-15 -298 -98 -541 -276 -811 -34 -52 -56 -88 -49 -81 21 20 32 14 68 -33 l34
-45 -28 -43 c-15 -23 -41 -58 -56 -78 -32 -41 -36 -54 -14 -45 67 25 -122
-163 -255 -253 -103 -71 -243 -142 -346 -177 -123 -41 -109 -15 28 54 177 88
428 260 428 293 0 6 -4 8 -8 5 -11 -6 -49 44 -53 70 -2 10 0 25 4 31 4 7 -54
-29 -130 -80 -195 -130 -324 -191 -513 -241 -140 -37 -225 -47 -410 -47 -152
0 -296 16 -413 46 -24 6 -26 5 -21 -11 4 -11 13 -24 21 -31 8 -6 12 -16 9 -21
-3 -5 0 -26 5 -48 9 -29 8 -39 -1 -42 -8 -3 -4 -10 11 -19 23 -13 22 -14 -20
-8 -86 11 -228 57 -326 106 -89 43 -97 51 -37 34 14 -4 17 3 19 48 3 73 17
108 40 100 29 -10 14 1 -87 68 -252 165 -430 357 -561 604 -17 33 -33 62 -35
64 -5 5 -194 -68 -207 -80 -5 -3 -4 -15 2 -25 5 -11 33 -65 61 -122 115 -232
267 -423 469 -591 266 -220 552 -353 886 -414 144 -26 464 -31 605 -9 197 31
378 88 559 177 536 265 906 753 1022 1350 20 104 24 150 24 345 0 214 -4 261
-36 412 -9 41 -14 47 -42 53 -18 4 -124 29 -237 57 l-204 49 -84 -33 c-73 -29
-92 -42 -155 -108 l-72 -75 34 -5 34 -5 -46 -47 c-49 -51 -64 -57 -73 -33 -11
27 -27 17 -111 -67 l-82 -81 -348 340 c-191 188 -417 411 -500 495 -84 85
-153 147 -153 139z"/>
<path d="M1874 3207 l-39 -42 40 35 c22 19 42 36 44 38 2 1 2 4 0 7 -3 2 -23
-14 -45 -38z"/>
<path d="M1930 3195 c0 -5 5 -17 10 -25 5 -8 10 -10 10 -5 0 6 -5 17 -10 25
-5 8 -10 11 -10 5z"/>
<path d="M1971 3014 c0 -11 3 -14 6 -6 3 7 2 16 -1 19 -3 4 -6 -2 -5 -13z"/>
<path d="M2026 2840 c14 -68 24 -88 19 -35 -3 27 -10 54 -15 59 -7 7 -8 -1 -4
-24z"/>
<path d="M731 2700 c-11 -25 -28 -80 -38 -123 -9 -43 -20 -72 -24 -66 -14 24
-24 -87 -24 -271 0 -102 4 -194 8 -204 7 -17 18 -9 92 64 l85 85 0 120 c0 72
8 166 19 235 19 109 19 140 2 112 -5 -9 -19 -1 -48 25 -22 21 -42 45 -45 53
-4 10 -13 -1 -27 -30z"/>
<path d="M1795 2489 c56 -57 89 -72 41 -18 -43 48 -56 59 -71 59 -5 0 9 -18
30 -41z"/>
<path d="M1945 2320 c3 -9 46 -56 96 -104 68 -67 87 -91 77 -98 -10 -8 -9 -9
4 -5 9 3 23 -2 31 -11 20 -23 40 -88 33 -109 -4 -12 1 -23 14 -31 16 -10 20
-10 20 1 0 7 -4 17 -9 23 -15 14 -24 81 -13 88 6 4 8 -3 5 -16 -4 -18 -3 -20
6 -8 8 11 9 6 5 -21 -4 -22 -2 -39 5 -43 14 -9 15 -46 1 -46 -6 0 -10 -33 -10
-77 0 -43 -3 -142 -7 -221 -5 -123 -8 -142 -22 -139 -9 2 -15 9 -13 15 1 7 -3
23 -10 35 -7 12 -11 28 -9 36 2 10 -3 9 -15 -4 -17 -17 -17 -18 1 -31 10 -8
16 -16 13 -20 -8 -8 -31 12 -263 235 -55 53 51 -57 235 -244 184 -187 335
-341 336 -343 1 -1 -5 32 -12 75 -8 43 -18 89 -23 103 -5 14 -12 39 -16 55 -7
34 -36 136 -71 245 -26 83 -65 241 -84 340 -13 66 -36 108 -52 92 -5 -5 -65
48 -133 117 -69 69 -123 119 -120 111z"/>
<path d="M1396 2183 c-4 -10 -4 -14 0 -10 4 4 12 0 18 -8 7 -10 16 -12 25 -6
12 8 12 12 -2 25 -20 21 -33 20 -41 -1z"/>
<path d="M2180 1915 c0 -14 5 -25 10 -25 6 0 10 11 10 25 0 14 -4 25 -10 25
-5 0 -10 -11 -10 -25z"/>
<path d="M990 1788 c-34 -29 -57 -54 -52 -56 16 -5 136 55 156 78 17 21 17 22
1 16 -10 -3 -23 -2 -30 4 -9 8 -29 -3 -75 -42z"/>
</g>
</svg>
